<svg xmlns="http://www.w3.org/2000/svg" width="118" height="27" fill="none"><path fill="#00FFB2" fill-opacity=".8" d="M21.51 14.183c1.204 0 1.797 1.464.933 2.302l-7.963 7.722a2.8 2.8 0 0 1-1.957.793H3.307c-1.204 0-1.797-1.464-.933-2.302l7.962-7.722a2.8 2.8 0 0 1 1.957-.793z"/><path fill="#00FFB2" fill-opacity=".8" d="M21.772 7.48c1.204 0 1.797 1.464.933 2.302L14.86 17.39c-.6.582-1.403.907-2.238.907H3.569c-1.204 0-1.797-1.464-.933-2.302l7.962-7.722a2.8 2.8 0 0 1 1.957-.793z"/><path fill="#00FFB2" fill-opacity=".8" d="M21.51 1c1.204 0 1.797 1.464.933 2.302l-7.963 7.722a2.8 2.8 0 0 1-1.957.793H3.307c-1.204 0-1.797-1.464-.933-2.302l7.962-7.722A2.8 2.8 0 0 1 12.293 1z"/><path fill="#fff" d="M42.246 21.288q-2.496 0-4.296-1.08-1.8-1.104-2.784-3.048-.984-1.968-.984-4.56 0-2.568.984-4.536t2.784-3.048q1.8-1.104 4.296-1.104 2.952 0 4.8 1.416t2.352 3.984h-2.64q-.36-1.488-1.488-2.376-1.104-.888-3.024-.888-1.704 0-2.976.792t-1.968 2.256q-.672 1.464-.672 3.504t.672 3.528q.696 1.464 1.968 2.256 1.272.768 2.976.768 1.92 0 3.024-.84 1.104-.864 1.488-2.328h2.64q-.504 2.496-2.352 3.912-1.848 1.392-4.8 1.392M52.124 21V9.096h2.16l.192 2.28a4.9 4.9 0 0 1 1.032-1.368q.624-.576 1.464-.888.864-.312 1.944-.312v2.52h-.672q-.768 0-1.464.192a3.3 3.3 0 0 0-1.2.624q-.504.432-.792 1.2-.264.744-.264 1.872V21zm10.344 5.28 2.976-6.624h-.696l-4.776-10.56h2.592l3.816 8.616 3.816-8.616h2.52L65.012 26.28zm12.367 0V9.096h2.16l.24 1.872q.384-.552.96-1.056t1.368-.792q.816-.312 1.896-.312 1.752 0 3.048.816a5.67 5.67 0 0 1 2.064 2.232q.744 1.416.744 3.216t-.744 3.216a5.7 5.7 0 0 1-2.064 2.208q-1.32.792-3.072.792-1.416 0-2.496-.552a4.4 4.4 0 0 1-1.704-1.584v7.128zm6.216-7.08q1.128 0 1.992-.528a3.64 3.64 0 0 0 1.344-1.44q.504-.936.504-2.184 0-1.224-.504-2.16a3.6 3.6 0 0 0-1.344-1.464q-.864-.528-1.992-.528-1.104 0-1.992.528a3.6 3.6 0 0 0-1.344 1.464q-.48.936-.48 2.16t.48 2.16 1.344 1.464a3.8 3.8 0 0 0 1.992.528M94.568 21q-1.152 0-1.992-.36a2.62 2.62 0 0 1-1.296-1.2q-.456-.84-.456-2.28v-6.048h-2.04V9.096h2.04l.312-2.976h2.088v2.976h3.408v2.016h-3.408v6.072q0 1.032.432 1.416.432.36 1.488.36h1.344V21zm4.834 0V9.096h2.4V21zm1.2-14.256q-.696 0-1.152-.432-.432-.432-.432-1.104 0-.648.432-1.056.456-.432 1.152-.432.672 0 1.128.432.456.408.456 1.056 0 .672-.456 1.104t-1.128.432M104.01 21l4.224-5.952-4.224-5.952h2.616l3.216 4.68 3.216-4.68h2.592l-4.224 5.952L115.65 21h-2.592l-3.216-4.68-3.216 4.68z"/></svg>